<svg width="184" height="167" viewBox="0 0 184 167" fill="none" xmlns="http://www.w3.org/2000/svg">
<path d="M163.579 166.078H19.8315C8.89893 166.078 0.00390625 157.184 0.00390625 146.251V27.3279C0.00390625 26.967 0.296295 26.6753 0.65656 26.6753H182.754C183.114 26.6753 183.407 26.967 183.407 27.3279V146.251C183.407 157.184 174.512 166.078 163.579 166.078ZM1.30921 27.9806V146.251C1.30921 156.463 9.61816 164.773 19.8315 164.773H163.579C173.793 164.773 182.102 156.464 182.102 146.251V27.9806H1.30921Z" fill="#112544"/>
<path d="M163.579 166.078H19.8315C8.89893 166.078 0.00390625 157.184 0.00390625 146.251V27.3279C0.00390625 26.967 0.296295 26.6753 0.65656 26.6753H182.754C183.114 26.6753 183.407 26.967 183.407 27.3279V146.251C183.407 157.184 174.512 166.078 163.579 166.078ZM1.30921 27.9806V146.251C1.30921 156.463 9.61816 164.773 19.8315 164.773H163.579C173.793 164.773 182.102 156.464 182.102 146.251V27.9806H1.30921Z" fill="#112544"/>
<path d="M182.757 27.3312V19.8296C182.757 9.23831 174.171 0.652649 163.58 0.652649H19.8312C9.23996 0.652649 0.654297 9.23831 0.654297 19.8296V27.3318L182.757 27.3312Z" fill="#0D7FF2"/>
<path d="M182.752 19.8303V27.3279H0.654297V22.7215H170.303C174.448 22.7215 177.808 19.361 177.808 15.216C177.721 14.7069 178.078 9.19526 174.003 3.74103C179.269 7.14919 182.752 13.0818 182.752 19.8303Z" fill="#0D7FF2"/>
<path d="M182.755 27.9845H0.652654C0.292389 27.9845 0 27.6928 0 27.3318V19.8296C0 8.89567 8.89567 0 19.8296 0H163.578C174.512 0 183.408 8.89567 183.408 19.8296V27.3318C183.408 27.6921 183.115 27.9845 182.755 27.9845ZM1.30531 26.6792H182.102V19.8296C182.102 9.61555 173.793 1.30531 163.578 1.30531H19.8296C9.61555 1.30531 1.30531 9.6149 1.30531 19.8296V26.6792Z" fill="#112544"/>
<path d="M19.8015 13.9923C19.8015 16.1167 18.0805 17.8371 15.9568 17.8371C13.833 17.8371 12.1113 16.116 12.1113 13.9923C12.1113 11.8686 13.8324 10.1469 15.9568 10.1469C18.0805 10.1469 19.8015 11.8679 19.8015 13.9923Z" fill="white"/>
<path d="M30.0232 17.8377C32.1469 17.8377 33.8686 16.1161 33.8686 13.9923C33.8686 11.8685 32.1469 10.1469 30.0232 10.1469C27.8994 10.1469 26.1777 11.8685 26.1777 13.9923C26.1777 16.1161 27.8994 17.8377 30.0232 17.8377Z" fill="white"/>
<path d="M47.937 13.9923C47.937 16.1167 46.2159 17.8371 44.0915 17.8371C41.9671 17.8371 40.2461 16.116 40.2461 13.9923C40.2461 11.8686 41.9671 10.1469 44.0915 10.1469C46.2159 10.1469 47.937 11.8679 47.937 13.9923Z" fill="white"/>
<path d="M164.106 14.6442H66.9124C66.5522 14.6442 66.2598 14.3525 66.2598 13.9916C66.2598 13.6307 66.5522 13.3389 66.9124 13.3389H164.106C164.466 13.3389 164.758 13.6307 164.758 13.9916C164.758 14.3525 164.466 14.6442 164.106 14.6442Z" fill="white"/>
<g opacity="0.6">
<path d="M136.813 113.292C124.288 134.247 97.1496 141.065 76.202 128.536C55.259 116.013 48.4283 88.8719 60.9579 67.9237C73.4882 46.9761 100.626 40.1578 121.57 52.6803C142.517 65.2099 149.344 92.344 136.813 113.292Z" fill="white"/>
</g>
<path d="M56.5647 65.2993C42.5855 88.6728 50.2045 118.951 73.5774 132.931C96.9509 146.911 127.227 139.297 141.206 115.924C155.185 92.5509 147.575 62.2697 124.201 48.2898C100.829 34.3106 70.5445 41.9265 56.5647 65.2993ZM131.274 109.983C120.576 127.871 97.4051 133.697 79.5179 122.999C61.6306 112.301 55.7991 89.1277 66.4974 71.2404C77.1957 53.3531 100.374 47.5243 118.261 58.2226C136.148 68.9202 141.972 92.096 131.274 109.983Z" fill="white"/>
<path d="M141.946 66.5596C147.435 80.3437 146.665 96.4323 138.461 110.144C124.481 133.515 94.2044 141.132 70.8329 127.152C63.1511 122.557 57.1663 116.194 53.0938 108.904C56.9575 118.609 63.9278 127.165 73.5806 132.935C96.9521 146.908 127.229 139.298 141.209 115.926C150.587 100.243 150.248 81.4532 141.946 66.5596Z" fill="#E1E5FF"/>
<path d="M73.2443 133.491C49.5451 119.317 41.8301 88.6683 56.0064 64.9645C70.1487 41.3195 100.893 33.5882 124.538 47.7299C148.181 61.8709 155.91 92.6129 141.768 116.259C127.594 139.958 96.9473 147.668 73.2443 133.491ZM57.127 65.6348C43.3227 88.7146 50.8308 118.564 73.9139 132.371C96.9924 146.174 126.842 138.673 140.647 115.588C154.421 92.5607 146.893 62.6215 123.868 48.8498C100.699 34.9927 70.8164 42.7469 57.127 65.6348ZM79.1847 123.559C61.0155 112.692 55.0737 89.0709 65.9391 70.9043C76.8299 52.6979 100.386 46.7692 118.598 57.662C136.807 68.5521 142.728 92.1051 131.836 110.318C120.919 128.571 97.2691 134.376 79.1847 123.559ZM67.0591 71.5752C56.5631 89.1238 62.3032 111.941 79.8544 122.439C97.4042 132.937 120.22 127.198 130.716 109.648C141.236 92.0594 135.521 69.3047 117.928 58.7826C100.31 48.2448 77.5694 54.0012 67.0591 71.5752Z" fill="#112544"/>
<path d="M125.629 96.6459C128.291 82.2599 118.788 68.4392 104.402 65.7765C90.0157 63.1137 76.1949 72.6173 73.5322 87.0033C70.8695 101.389 80.3731 115.21 94.7591 117.873C109.145 120.536 122.966 111.032 125.629 96.6459Z" fill="#FC6054"/>
<path d="M126.082 91.8304C126.082 106.463 114.216 118.322 99.5904 118.322C90.1792 118.322 81.91 113.414 77.2109 106.019C81.9296 110.385 88.2408 113.049 95.1785 113.049C109.804 113.049 121.663 101.19 121.663 86.5576C121.663 81.3298 120.149 76.448 117.532 72.3428C122.786 77.1848 126.082 84.1225 126.082 91.8304Z" fill="#E64B38"/>
<path d="M99.5879 118.975C84.6212 118.975 72.4453 106.799 72.4453 91.8317C72.4453 76.8651 84.6212 64.6891 99.5879 64.6891C114.555 64.6891 126.731 76.8651 126.731 91.8317C126.731 106.799 114.555 118.975 99.5879 118.975ZM99.5879 65.9945C85.3411 65.9945 73.7506 77.5849 73.7506 91.8317C73.7506 106.079 85.3411 117.67 99.5879 117.67C113.835 117.67 125.426 106.079 125.426 91.8317C125.426 77.5849 113.835 65.9945 99.5879 65.9945Z" fill="#112544"/>
<path d="M110.674 102.912C109.251 104.348 106.914 104.348 105.492 102.912L99.5916 97.0125L93.6916 102.912C92.2557 104.348 89.9388 104.348 88.5095 102.912C87.0652 101.467 87.0822 99.1577 88.5095 97.7304L94.4095 91.8304L88.5095 85.9304C87.0737 84.5011 87.0737 82.1776 88.5095 80.7483C89.9049 79.3399 92.2453 79.302 93.6916 80.7483L99.5916 86.6483L105.492 80.7483C106.921 79.319 109.244 79.319 110.674 80.7483C112.091 82.1783 112.111 84.4802 110.674 85.9304L104.774 91.8304L110.674 97.7304C112.103 99.1662 112.103 101.483 110.674 102.912Z" fill="white"/>
<path d="M53.8167 39.0235H29.3304C28.9701 39.0235 28.6777 38.7318 28.6777 38.3709C28.6777 38.0099 28.9701 37.7182 29.3304 37.7182H53.8167C54.1769 37.7182 54.4693 38.0099 54.4693 38.3709C54.4693 38.7318 54.1776 39.0235 53.8167 39.0235Z" fill="#112544"/>
<path d="M43.0348 44.4855H29.3323C28.9721 44.4855 28.6797 44.1938 28.6797 43.8329C28.6797 43.472 28.9721 43.1802 29.3323 43.1802H43.0348C43.3951 43.1802 43.6875 43.472 43.6875 43.8329C43.6875 44.1938 43.3951 44.4855 43.0348 44.4855Z" fill="#112544"/>
<path d="M48.7932 49.9483H29.3323C28.9721 49.9483 28.6797 49.6565 28.6797 49.2956C28.6797 48.9347 28.9721 48.6429 29.3323 48.6429H48.7932C49.1534 48.6429 49.4458 48.9347 49.4458 49.2956C49.4458 49.6565 49.1534 49.9483 48.7932 49.9483Z" fill="#112544"/>
<path d="M42.9566 146.142C42.721 145.869 42.751 145.457 43.0245 145.221L56.4848 133.599C56.7576 133.363 57.1694 133.393 57.405 133.666C57.6406 133.939 57.6106 134.351 57.3372 134.586L43.8768 146.209C43.604 146.444 43.1922 146.414 42.9566 146.142Z" fill="url(#paint0_linear_118_4900)"/>
<path d="M61.8301 130.501C61.2284 130.501 60.9458 129.749 61.4033 129.354L64.7129 126.496C64.9857 126.26 65.3975 126.29 65.6331 126.564C65.8688 126.837 65.8387 127.249 65.5659 127.484C62.1617 130.349 62.2648 130.501 61.8301 130.501Z" fill="url(#paint1_linear_118_4900)"/>
<path d="M38.7568 118.657C38.405 118.657 38.1152 118.378 38.1048 118.024C38.0937 117.663 38.377 117.362 38.7379 117.352L40.3297 117.304C40.6599 117.284 40.9908 117.576 41.0013 117.937C41.0124 118.298 40.7285 118.599 40.3682 118.609L38.777 118.657C38.7699 118.657 38.7633 118.657 38.7568 118.657Z" fill="url(#paint2_linear_118_4900)"/>
<path d="M44.2259 117.84C44.2148 117.48 44.4987 117.178 44.8583 117.168L61.3803 116.67C61.7268 116.67 62.0414 116.943 62.0525 117.303C62.0636 117.664 61.7797 117.965 61.4201 117.976L44.8981 118.473C44.4994 118.472 44.2357 118.173 44.2259 117.84Z" fill="url(#paint3_linear_118_4900)"/>
<path d="M71.0079 152.139C70.6483 152.114 70.3768 151.803 70.4009 151.443L70.5569 149.157C70.581 148.798 70.8976 148.53 71.252 148.55C71.6116 148.575 71.8831 148.886 71.8589 149.246L71.7029 151.532C71.6808 151.866 71.4034 152.156 71.0079 152.139Z" fill="url(#paint4_linear_118_4900)"/>
<path d="M71.6251 143.097C71.2654 143.072 70.9939 142.761 71.0181 142.401L71.8594 130.06C71.8835 129.701 72.1994 129.434 72.5544 129.453C72.9141 129.478 73.1856 129.789 73.1614 130.149L72.3201 142.49C72.2979 142.824 72.0199 143.113 71.6251 143.097Z" fill="url(#paint5_linear_118_4900)"/>
<defs>
<linearGradient id="paint0_linear_118_4900" x1="50.1808" y1="133.44" x2="50.1808" y2="146.368" gradientUnits="userSpaceOnUse">
<stop offset="0.72905" stop-color="#2384C8"/>
<stop offset="0.906815" stop-color="#2384C8" stop-opacity="0.63"/>
<stop offset="1" stop-color="#2384C8" stop-opacity="0"/>
</linearGradient>
<linearGradient id="paint1_linear_118_4900" x1="63.4843" y1="126.337" x2="63.4843" y2="130.501" gradientUnits="userSpaceOnUse">
<stop offset="0.72905" stop-color="#2384C8"/>
<stop offset="0.906815" stop-color="#2384C8" stop-opacity="0.63"/>
<stop offset="1" stop-color="#2384C8" stop-opacity="0"/>
</linearGradient>
<linearGradient id="paint2_linear_118_4900" x1="39.553" y1="117.303" x2="39.553" y2="118.657" gradientUnits="userSpaceOnUse">
<stop offset="0.72905" stop-color="#2384C8"/>
<stop offset="0.906815" stop-color="#2384C8" stop-opacity="0.63"/>
<stop offset="1" stop-color="#2384C8" stop-opacity="0"/>
</linearGradient>
<linearGradient id="paint3_linear_118_4900" x1="53.1392" y1="116.67" x2="53.1392" y2="118.473" gradientUnits="userSpaceOnUse">
<stop offset="0.72905" stop-color="#2384C8"/>
<stop offset="0.906815" stop-color="#2384C8" stop-opacity="0.63"/>
<stop offset="1" stop-color="#2384C8" stop-opacity="0"/>
</linearGradient>
<linearGradient id="paint4_linear_118_4900" x1="71.1299" y1="148.549" x2="71.1299" y2="152.14" gradientUnits="userSpaceOnUse">
<stop offset="0.72905" stop-color="#2384C8"/>
<stop offset="0.906815" stop-color="#2384C8" stop-opacity="0.63"/>
<stop offset="1" stop-color="#2384C8" stop-opacity="0"/>
</linearGradient>
<linearGradient id="paint5_linear_118_4900" x1="72.0898" y1="129.452" x2="72.0898" y2="143.098" gradientUnits="userSpaceOnUse">
<stop offset="0.72905" stop-color="#2384C8"/>
<stop offset="0.906815" stop-color="#2384C8" stop-opacity="0.63"/>
<stop offset="1" stop-color="#2384C8" stop-opacity="0"/>
</linearGradient>
</defs>
</svg>
