<svg width="512" height="390" viewBox="0 0 512 390" fill="none" xmlns="http://www.w3.org/2000/svg">
<path d="M377.291 383.058H45.7381C20.5221 383.058 0.00585938 362.543 0.00585938 337.326V63.0316C0.00585938 62.1992 0.680252 61.5263 1.5112 61.5263H421.518C422.349 61.5263 423.023 62.1992 423.023 63.0316V337.326C423.023 362.543 402.507 383.058 377.291 383.058ZM3.01654 64.537V337.326C3.01654 360.881 22.181 380.047 45.7381 380.047H377.291C400.848 380.047 420.012 360.883 420.012 337.326V64.537H3.01654Z" fill="#112544"/>
<path d="M377.291 383.058H45.7381C20.5221 383.058 0.00585938 362.543 0.00585938 337.326V63.0316C0.00585938 62.1992 0.680252 61.5263 1.5112 61.5263H421.518C422.349 61.5263 423.023 62.1992 423.023 63.0316V337.326C423.023 362.543 402.507 383.058 377.291 383.058ZM3.01654 64.537V337.326C3.01654 360.881 22.181 380.047 45.7381 380.047H377.291C400.848 380.047 420.012 360.883 420.012 337.326V64.537H3.01654Z" fill="#112544"/>
<path d="M421.523 63.0391V45.7367C421.523 21.3081 401.72 1.50531 377.291 1.50531H45.7373C21.3086 1.50531 1.50586 21.3081 1.50586 45.7367V63.0406L421.523 63.0391Z" fill="#0D7FF2"/>
<path d="M421.52 45.7383V63.0316H1.51367V52.407H392.807C402.368 52.407 410.117 44.656 410.117 35.0955C409.917 33.9214 410.739 21.2088 401.341 8.62866C413.486 16.4895 421.52 30.1731 421.52 45.7383Z" fill="#0D7FF2"/>
<path d="M421.522 64.546H1.50534C0.674392 64.546 0 63.8731 0 63.0406V45.7367C0 20.5178 20.5178 0 45.7367 0H377.291C402.51 0 423.028 20.5178 423.028 45.7367V63.0406C423.028 63.8716 422.353 64.546 421.522 64.546ZM3.01068 61.5353H420.017V45.7367C420.017 22.1782 400.851 3.01068 377.291 3.01068H45.7367C22.1782 3.01068 3.01068 22.1767 3.01068 45.7367V61.5353Z" fill="#112544"/>
<path d="M45.6671 32.2731C45.6671 37.173 41.6975 41.141 36.7991 41.141C31.9008 41.141 27.9297 37.1715 27.9297 32.2731C27.9297 27.3747 31.8993 23.4036 36.7991 23.4036C41.6975 23.4036 45.6671 27.3732 45.6671 32.2731Z" fill="white"/>
<path d="M69.2484 41.1425C74.1468 41.1425 78.1178 37.1716 78.1178 32.2731C78.1178 27.3746 74.1468 23.4036 69.2484 23.4036C64.3499 23.4036 60.3789 27.3746 60.3789 32.2731C60.3789 37.1716 64.3499 41.1425 69.2484 41.1425Z" fill="white"/>
<path d="M110.565 32.2731C110.565 37.173 106.596 41.141 101.696 41.141C96.7958 41.141 92.8262 37.1715 92.8262 32.2731C92.8262 27.3747 96.7958 23.4036 101.696 23.4036C106.596 23.4036 110.565 27.3732 110.565 32.2731Z" fill="white"/>
<path d="M378.505 33.7768H154.33C153.499 33.7768 152.824 33.1039 152.824 32.2715C152.824 31.439 153.499 30.7661 154.33 30.7661H378.505C379.336 30.7661 380.01 31.439 380.01 32.2715C380.01 33.1039 379.336 33.7768 378.505 33.7768Z" fill="white"/>
<path d="M326.109 262.345L505.062 367.225C510.343 370.383 512.064 377.229 508.907 382.51C505.74 387.806 498.891 389.505 493.622 386.353L314.667 281.473C319.169 275.742 323.123 269.158 326.109 262.345Z" fill="white"/>
<path d="M506.864 385.01C503.153 388.397 497.792 388.841 493.617 386.35L314.677 281.473C319.182 275.706 323.062 269.283 326.117 262.34L333.629 266.736C333.043 267.815 332.399 268.941 331.78 269.98C328.684 275.167 330.283 281.864 335.496 284.919C516.322 390.893 505.051 384.473 506.864 385.01Z" fill="#E1E5FF"/>
<path d="M492.849 387.646C302.284 275.729 313.431 283.031 313.188 281.755C312.911 280.287 314.465 280.237 319.687 271.502C321.582 268.334 323.279 265.05 324.73 261.741C325.093 260.915 326.094 260.592 326.87 261.047L505.824 365.927C511.821 369.514 513.778 377.297 510.198 383.284C506.594 389.302 498.833 391.223 492.849 387.646ZM316.901 281.038L494.382 385.055C498.94 387.78 504.859 386.34 507.615 381.738C510.343 377.177 508.851 371.245 504.29 368.518L326.794 264.491C324.101 270.327 320.709 275.985 316.901 281.038Z" fill="#112544"/>
<g opacity="0.6">
<path d="M315.561 261.306C286.672 309.639 224.077 325.366 175.761 296.466C127.456 267.583 111.701 204.982 140.601 156.665C169.502 108.35 232.096 92.6236 280.402 121.507C328.717 150.406 344.462 212.991 315.561 261.306Z" fill="white"/>
</g>
<path d="M130.47 150.612C98.2276 204.523 115.801 274.36 169.71 306.605C223.621 338.849 293.452 321.286 325.695 267.377C357.938 213.468 340.384 143.624 286.473 111.38C232.566 79.1372 162.715 96.703 130.47 150.612ZM302.787 253.675C278.111 294.932 224.669 308.372 183.412 283.696C142.155 259.021 128.705 205.572 153.38 164.315C178.056 123.058 231.516 109.614 272.773 134.29C314.029 158.964 327.462 212.418 302.787 253.675Z" fill="white"/>
<path d="M327.395 153.519C340.055 185.312 338.279 222.42 319.356 254.046C287.112 307.952 217.279 325.519 163.373 293.275C145.655 282.677 131.851 268 122.458 251.186C131.37 273.57 147.447 293.305 169.711 306.612C223.617 338.841 293.45 321.289 325.694 267.383C347.326 231.21 346.543 187.871 327.395 153.519Z" fill="#E1E5FF"/>
<path d="M168.935 307.896C114.273 275.203 96.4787 204.512 129.176 149.84C161.795 95.3031 232.706 77.4708 287.244 110.089C341.777 142.705 359.603 213.611 326.984 268.151C294.292 322.811 223.606 340.594 168.935 307.896ZM131.761 151.386C99.9214 204.619 117.239 273.466 170.48 305.312C223.71 337.149 292.557 319.847 324.399 266.603C356.168 213.49 338.805 144.436 285.698 112.672C232.26 80.7103 163.335 98.5952 131.761 151.386ZM182.637 284.988C140.73 259.923 127.025 205.441 152.086 163.54C177.206 121.547 231.536 107.873 273.543 132.997C315.542 158.115 329.2 212.44 304.077 254.448C278.896 296.547 224.348 309.936 182.637 284.988ZM154.669 165.088C130.46 205.563 143.7 258.191 184.181 282.405C224.66 306.618 277.284 293.38 301.492 252.902C325.758 212.334 312.575 159.851 271.997 135.581C231.362 111.276 178.911 124.553 154.669 165.088Z" fill="#112544"/>
<path d="M289.762 222.913C295.904 189.732 273.984 157.854 240.803 151.713C207.622 145.571 175.744 167.491 169.603 200.672C163.461 233.854 185.381 265.731 218.562 271.872C251.743 278.014 283.621 256.094 289.762 222.913Z" fill="#FC6054"/>
<path d="M290.802 211.806C290.802 245.556 263.435 272.908 229.7 272.908C207.993 272.908 188.92 261.587 178.082 244.532C188.966 254.603 203.522 260.746 219.524 260.746C253.259 260.746 280.611 233.394 280.611 199.644C280.611 187.586 277.118 176.326 271.082 166.858C283.2 178.026 290.802 194.028 290.802 211.806Z" fill="#E64B38"/>
<path d="M229.7 274.414C195.179 274.414 167.096 246.331 167.096 211.809C167.096 177.288 195.179 149.205 229.7 149.205C264.22 149.205 292.305 177.288 292.305 211.809C292.305 246.331 264.22 274.414 229.7 274.414ZM229.7 152.216C196.84 152.216 170.106 178.949 170.106 211.809C170.106 244.669 196.84 271.404 229.7 271.404C262.561 271.404 289.295 244.669 289.295 211.809C289.295 178.949 262.56 152.216 229.7 152.216Z" fill="#112544"/>
<path d="M255.258 237.367C251.977 240.677 246.588 240.678 243.306 237.367L229.698 223.758L216.09 237.367C212.778 240.678 207.434 240.678 204.137 237.367C200.806 234.034 200.845 228.706 204.137 225.414L217.745 211.806L204.137 198.198C200.825 194.901 200.825 189.542 204.137 186.245C207.356 182.997 212.754 182.909 216.09 186.245L229.698 199.853L243.306 186.245C246.603 182.948 251.962 182.948 255.258 186.245C258.527 189.543 258.573 194.853 255.258 198.198L241.65 211.806L255.258 225.414C258.555 228.726 258.555 234.07 255.258 237.367Z" fill="white"/>
<path d="M328.08 39.0235H303.594C303.234 39.0235 302.941 38.7318 302.941 38.3709C302.941 38.0099 303.234 37.7182 303.594 37.7182H328.08C328.441 37.7182 328.733 38.0099 328.733 38.3709C328.733 38.7318 328.441 39.0235 328.08 39.0235Z" fill="#112544"/>
<path d="M317.298 44.4855H303.596C303.236 44.4855 302.943 44.1938 302.943 43.8329C302.943 43.472 303.236 43.1802 303.596 43.1802H317.298C317.659 43.1802 317.951 43.472 317.951 43.8329C317.951 44.1938 317.659 44.4855 317.298 44.4855Z" fill="#112544"/>
<path d="M323.057 49.9483H303.596C303.236 49.9483 302.943 49.6565 302.943 49.2956C302.943 48.9347 303.236 48.6429 303.596 48.6429H323.057C323.417 48.6429 323.709 48.9347 323.709 49.2956C323.709 49.6565 323.417 49.9483 323.057 49.9483Z" fill="#112544"/>
<path d="M317.22 146.142C316.985 145.869 317.015 145.457 317.288 145.221L330.748 133.599C331.021 133.363 331.433 133.393 331.669 133.666C331.904 133.939 331.874 134.351 331.601 134.586L318.14 146.209C317.868 146.444 317.456 146.414 317.22 146.142Z" fill="url(#paint0_linear_118_4136)"/>
<path d="M336.094 130.501C335.492 130.501 335.209 129.749 335.667 129.354L338.977 126.496C339.249 126.26 339.661 126.29 339.897 126.564C340.132 126.837 340.102 127.249 339.83 127.484C336.425 130.349 336.528 130.501 336.094 130.501Z" fill="url(#paint1_linear_118_4136)"/>
<path d="M313.02 118.657C312.669 118.657 312.379 118.378 312.368 118.024C312.357 117.663 312.641 117.362 313.002 117.352L314.593 117.304C314.924 117.284 315.255 117.576 315.265 117.937C315.276 118.298 314.992 118.599 314.632 118.609L313.041 118.657C313.034 118.657 313.027 118.657 313.02 118.657Z" fill="url(#paint2_linear_118_4136)"/>
<path d="M318.49 117.84C318.478 117.48 318.762 117.178 319.122 117.168L335.644 116.67C335.99 116.67 336.305 116.943 336.316 117.303C336.327 117.664 336.043 117.965 335.684 117.976L319.162 118.473C318.763 118.472 318.499 118.173 318.49 117.84Z" fill="url(#paint3_linear_118_4136)"/>
<path d="M345.272 152.139C344.912 152.114 344.64 151.803 344.665 151.443L344.821 149.157C344.845 148.798 345.161 148.53 345.516 148.55C345.875 148.575 346.147 148.886 346.123 149.246L345.967 151.532C345.944 151.866 345.667 152.156 345.272 152.139Z" fill="url(#paint4_linear_118_4136)"/>
<path d="M345.889 143.097C345.529 143.072 345.258 142.761 345.282 142.401L346.123 130.06C346.147 129.701 346.463 129.434 346.818 129.453C347.178 129.478 347.449 129.789 347.425 130.149L346.584 142.49C346.562 142.824 346.284 143.113 345.889 143.097Z" fill="url(#paint5_linear_118_4136)"/>
<defs>
<linearGradient id="paint0_linear_118_4136" x1="324.444" y1="133.44" x2="324.444" y2="146.368" gradientUnits="userSpaceOnUse">
<stop offset="0.72905" stop-color="#2384C8"/>
<stop offset="0.906815" stop-color="#2384C8" stop-opacity="0.63"/>
<stop offset="1" stop-color="#2384C8" stop-opacity="0"/>
</linearGradient>
<linearGradient id="paint1_linear_118_4136" x1="337.748" y1="126.337" x2="337.748" y2="130.501" gradientUnits="userSpaceOnUse">
<stop offset="0.72905" stop-color="#2384C8"/>
<stop offset="0.906815" stop-color="#2384C8" stop-opacity="0.63"/>
<stop offset="1" stop-color="#2384C8" stop-opacity="0"/>
</linearGradient>
<linearGradient id="paint2_linear_118_4136" x1="313.817" y1="117.303" x2="313.817" y2="118.657" gradientUnits="userSpaceOnUse">
<stop offset="0.72905" stop-color="#2384C8"/>
<stop offset="0.906815" stop-color="#2384C8" stop-opacity="0.63"/>
<stop offset="1" stop-color="#2384C8" stop-opacity="0"/>
</linearGradient>
<linearGradient id="paint3_linear_118_4136" x1="327.403" y1="116.67" x2="327.403" y2="118.473" gradientUnits="userSpaceOnUse">
<stop offset="0.72905" stop-color="#2384C8"/>
<stop offset="0.906815" stop-color="#2384C8" stop-opacity="0.63"/>
<stop offset="1" stop-color="#2384C8" stop-opacity="0"/>
</linearGradient>
<linearGradient id="paint4_linear_118_4136" x1="345.394" y1="148.549" x2="345.394" y2="152.14" gradientUnits="userSpaceOnUse">
<stop offset="0.72905" stop-color="#2384C8"/>
<stop offset="0.906815" stop-color="#2384C8" stop-opacity="0.63"/>
<stop offset="1" stop-color="#2384C8" stop-opacity="0"/>
</linearGradient>
<linearGradient id="paint5_linear_118_4136" x1="346.353" y1="129.452" x2="346.353" y2="143.098" gradientUnits="userSpaceOnUse">
<stop offset="0.72905" stop-color="#2384C8"/>
<stop offset="0.906815" stop-color="#2384C8" stop-opacity="0.63"/>
<stop offset="1" stop-color="#2384C8" stop-opacity="0"/>
</linearGradient>
</defs>
</svg>
