<svg width="46" height="46" viewBox="0 0 46 46" fill="none" xmlns="http://www.w3.org/2000/svg">
<path d="M30.6673 3.8335V11.5002M15.334 3.8335V11.5002" stroke="#4999D2" stroke-width="3" stroke-linecap="round" stroke-linejoin="round"/>
<path d="M24.9167 7.6665H21.0833C13.8551 7.6665 10.241 7.6665 7.99551 9.91201C5.75 12.1575 5.75 15.7716 5.75 22.9998V26.8332C5.75 34.0613 5.75 37.6756 7.99551 39.9209C10.241 42.1665 13.8551 42.1665 21.0833 42.1665H24.9167C32.1448 42.1665 35.7591 42.1665 38.0044 39.9209C40.25 37.6756 40.25 34.0613 40.25 26.8332V22.9998C40.25 15.7716 40.25 12.1575 38.0044 9.91201C35.7591 7.6665 32.1448 7.6665 24.9167 7.6665Z" stroke="#4999D2" stroke-width="3" stroke-linecap="round" stroke-linejoin="round"/>
<path d="M5.75 19.1665H40.25" stroke="#4999D2" stroke-width="3" stroke-linecap="round" stroke-linejoin="round"/>
</svg>
