<svg width="40" height="40" viewBox="0 0 40 40" fill="none" xmlns="http://www.w3.org/2000/svg">
<path d="M22.6962 35.6113C21.9735 36.288 21.0073 36.6663 20.0018 36.6663C18.9963 36.6663 18.0303 36.288 17.3075 35.6113C10.6884 29.3763 1.81793 22.4112 6.14378 12.2991C8.48272 6.83161 14.0972 3.33301 20.0018 3.33301C25.9065 3.33301 31.521 6.83161 33.86 12.2991C38.1803 22.3985 29.3317 29.3978 22.6962 35.6113Z" stroke="#141B34" stroke-width="3"/>
<path d="M25.8346 18.3333C25.8346 21.555 23.223 24.1667 20.0013 24.1667C16.7796 24.1667 14.168 21.555 14.168 18.3333C14.168 15.1117 16.7796 12.5 20.0013 12.5C23.223 12.5 25.8346 15.1117 25.8346 18.3333Z" stroke="#141B34" stroke-width="3"/>
</svg>
