<svg width="56" height="56" viewBox="0 0 56 56" fill="none" xmlns="http://www.w3.org/2000/svg">
<path d="M27.9998 4.66675L32.6944 16.8726C33.3524 18.5835 33.6814 19.4389 34.1931 20.1585C34.6465 20.7962 35.2037 21.3534 35.8415 21.8068C36.561 22.3185 37.4164 22.6475 39.1273 23.3055L51.3332 28.0001L39.1273 32.6946C37.4164 33.3527 36.561 33.6817 35.8415 34.1933C35.2037 34.6468 34.6465 35.204 34.1931 35.8417C33.6814 36.5612 33.3524 37.4167 32.6944 39.1276L27.9998 51.3334L23.3053 39.1276C22.6472 37.4167 22.3182 36.5612 21.8066 35.8417C21.3531 35.204 20.796 34.6468 20.1582 34.1933C19.4387 33.6817 18.5832 33.3527 16.8724 32.6947L4.6665 28.0001L16.8724 23.3055C18.5832 22.6475 19.4387 22.3185 20.1582 21.8068C20.796 21.3534 21.3531 20.7962 21.8066 20.1585C22.3182 19.4389 22.6472 18.5835 23.3053 16.8726L27.9998 4.66675Z" stroke="black" stroke-width="3.5" stroke-linecap="round" stroke-linejoin="round"/>
</svg>
