<svg width="56" height="56" viewBox="0 0 56 56" fill="none" xmlns="http://www.w3.org/2000/svg">
<path d="M4.66797 49.4493C6.26686 51.9002 8.33373 51.9002 9.97161 49.4493C15.2376 41.3991 20.2536 55.2397 23.9716 49.5401C29.6416 40.9994 33.7198 55.8118 37.9716 49.4493C43.5161 40.9732 46.9701 55.0092 51.3346 50.3609" stroke="#141B34" stroke-width="3.5" stroke-linecap="round"/>
<path d="M41.1109 39.6897C42.7319 38.2797 46.5389 34.3284 47.5143 28.2127C48.4194 24.4554 47.8888 16.109 41.7981 10.3773C37.742 6.3238 26.9863 0.431487 15.2853 9.29009C12.9464 11.1752 8.67957 16.3641 8.19377 23.182C7.70797 29.9998 10.6728 34.6436 12.1828 36.4699C12.9244 37.2721 13.2882 37.7423 14.063 38.4437C14.7309 39.0485 15.0082 39.2468 15.551 39.6839C18.8318 39.8071 26.2263 38.2783 31.2001 35.1026C32.303 34.5844 35.1187 32.7924 37.4121 29.6102M9.7366 29.8736C12.493 30.9754 19.5764 32.2718 26.4163 25.9163M26.9289 25.3742C30.2786 24.6703 38.708 25.3742 43.9452 34.5489M17.9605 8.13962C15.3772 12.6768 14.7763 24.737 18.5008 29.2247M27.1767 25.4081C25.4192 21.1235 24.1448 10.6381 28.223 5.24678M26.8636 14.7962C30.9392 14.1799 41.0096 16.1512 47.8099 24.503" stroke="#141B34" stroke-width="3.5" stroke-linecap="round" stroke-linejoin="round"/>
</svg>
