<svg width="46" height="46" viewBox="0 0 46 46" fill="none" xmlns="http://www.w3.org/2000/svg">
<path d="M7.66602 26.8335H42.166" stroke="#4999D2" stroke-width="3" stroke-linecap="round" stroke-linejoin="round"/>
<path d="M9.58398 42.1668L11.3676 40.3832C12.381 39.3698 12.8878 38.8631 13.5263 38.575C14.1648 38.2867 14.88 38.2421 16.3105 38.1528L22.5443 37.7631C25.6081 37.5716 27.1401 37.4758 28.4881 36.8285C29.8363 36.1811 30.8688 35.0453 32.9336 32.7738L38.334 26.8335H31.6257L28.1893 30.2699C27.9608 30.4984 27.8464 30.6128 27.7275 30.7136C27.1161 31.233 26.3571 31.5473 25.5577 31.6125C25.402 31.6252 25.2405 31.6252 24.9173 31.6252M24.9173 31.6252C24.9173 30.7345 24.9173 30.2892 24.8437 29.9189C24.5413 28.3983 23.3525 27.2095 21.8319 26.9071C21.4616 26.8335 21.0163 26.8335 20.1257 26.8335H18.6278C16.6248 26.8335 15.6233 26.8335 14.6841 27.075C13.9846 27.2548 13.314 27.5325 12.6923 27.8999C11.8575 28.3933 11.1493 29.1015 9.73299 30.5179L3.83398 36.4168M24.9173 31.6252H18.209" stroke="#4999D2" stroke-width="3" stroke-linecap="round" stroke-linejoin="round"/>
<path d="M9.58398 22.0418C9.58398 13.5734 16.4489 6.7085 24.9173 6.7085M24.9173 6.7085C33.3857 6.7085 40.2506 13.5734 40.2506 22.0418M24.9173 6.7085V3.8335" stroke="#4999D2" stroke-width="3" stroke-linecap="round" stroke-linejoin="round"/>
</svg>
