<svg width="270" height="130" viewBox="0 0 270 130" fill="none" xmlns="http://www.w3.org/2000/svg">
<path d="M235.085 55.2124L216.241 107.568C216.241 107.568 215.903 108.245 215.677 108.471C215.452 108.696 215 108.809 214.549 108.809C214.21 108.809 213.872 108.809 213.533 108.471C213.308 108.245 213.082 107.907 213.082 107.568L194.239 55.2124H180.36L201.122 111.179C202.363 114.451 204.055 116.933 206.425 118.739C208.794 120.431 211.502 121.221 214.549 121.221C217.595 121.221 220.416 120.319 222.786 118.739C225.043 117.046 226.848 114.451 227.976 111.179L248.851 55.2124H235.085Z" fill="#6443F4"/>
<path d="M252.504 119.589V55.2124H266.447V119.589H252.504Z" fill="#6443F4"/>
<path d="M259.476 48.0654C264.799 48.0654 269.115 43.7499 269.115 38.4265C269.115 33.1031 264.799 28.7876 259.476 28.7876C254.152 28.7876 249.837 33.1031 249.837 38.4265C249.837 43.7499 254.152 48.0654 259.476 48.0654Z" fill="#6443F4"/>
<path d="M90.5237 45.8771C78.4773 46.8372 67.1169 46.4437 56.2989 44.7081C34.2327 41.2712 15.0306 32.1218 0.737189 18.4682L10.3971 8.38963C22.434 19.9862 39.5255 28.0049 58.4512 30.9704C59.8974 31.2011 61.3546 31.4052 62.8236 31.5825C64.0289 31.7281 65.2421 31.8557 66.4636 31.9653C80.8327 33.2551 100.699 33.0916 118.011 29.4049L119.108 43.1722C110.027 45.1227 98.8471 45.2859 90.5294 45.9488L90.5237 45.8771Z" fill="#6443F4"/>
<path d="M91.917 119.639H78.7537V80.7965C78.7537 75.4736 79.7607 70.7261 81.7748 66.5541C83.7888 62.3821 86.666 59.0733 90.5503 56.6996C94.4346 54.3259 99.182 53.103 104.865 53.103C105.094 53.103 105.322 53.1055 105.549 53.1102V53.103H116.589V55.4767V65.7319H107.641C107.123 65.7029 106.605 65.691 106.087 65.691C105.906 65.691 105.727 65.6934 105.549 65.6982C101.484 65.8082 98.2133 67.1753 95.8013 69.863C93.2837 72.6683 91.9889 76.4807 91.9889 81.2281V119.567L91.917 119.639Z" fill="#6443F4"/>
<path d="M146.399 121.224C140.141 121.224 134.53 119.641 129.567 116.548C124.675 113.455 120.791 109.283 117.914 104.104C115.036 98.925 113.67 93.1704 113.67 86.8404C113.67 80.5104 115.18 74.9716 118.273 69.7206C121.366 64.5415 125.466 60.4414 130.718 57.3483C135.969 54.2552 141.867 52.7446 148.413 52.7446C154.959 52.7446 160.857 54.2552 166.108 57.2044C171.359 60.1536 175.459 64.2538 178.552 69.3609C181.645 74.4681 183.156 80.2946 183.156 86.7685V119.498H170.64V95.1845L175.171 91.7318C175.171 97.1986 173.949 102.162 171.503 106.622C169.057 111.082 165.676 114.606 161.36 117.196C157.045 119.785 152.081 121.152 146.399 121.152V121.224ZM148.413 108.78C152.513 108.78 156.181 107.773 159.49 105.83C162.799 103.888 165.317 101.227 167.187 97.9179C169.057 94.6091 169.992 91.0125 169.992 87.0562C169.992 83.0999 169.057 79.4314 167.187 76.1225C165.317 72.8137 162.727 70.2241 159.49 68.21C156.181 66.1959 152.513 65.1889 148.413 65.1889C144.313 65.1889 140.644 66.1959 137.407 68.21C134.17 70.2241 131.581 72.8137 129.71 76.1225C127.84 79.4314 126.833 83.028 126.833 87.0562C126.833 91.0844 127.768 94.5371 129.71 97.9179C131.581 101.227 134.17 103.888 137.407 105.83C140.644 107.773 144.313 108.78 148.413 108.78Z" fill="#6443F4"/>
<path d="M64.6136 32.5005C65.2543 38.95 66.4954 46.3063 67.685 54.6508C68.8478 62.8075 69.9147 71.6397 70.0222 80.2768C70.2336 97.2688 66.7343 115.641 50.3881 126.166C41.6358 131.801 30.6677 130.841 22.7449 125.778C14.5036 120.512 9.14059 110.581 11.8902 98.424C14.2241 88.1051 19.8422 80.8053 27.6261 74.6772C34.7662 69.0559 44.091 64.1612 54.5424 58.689C54.4449 57.9811 54.3462 57.2736 54.2454 56.5669C53.1278 48.7273 51.783 40.671 51.1047 33.8424L64.6136 32.5005ZM56.1312 73.191C47.6884 77.6561 41.104 81.3436 36.0234 85.3435C30.0637 90.0355 26.6216 94.8286 25.1311 101.419C23.7376 107.58 26.2651 111.917 30.0553 114.34C34.1642 116.965 39.3692 117.115 43.039 114.752C53.2509 108.177 56.6437 96.1831 56.4479 80.4455C56.4182 78.0603 56.3057 75.6373 56.1312 73.191Z" fill="#6443F4"/>
</svg>
