<svg width="1284" height="621" viewBox="0 0 1284 621" fill="none" xmlns="http://www.w3.org/2000/svg">
<path d="M1121.64 263.429L1031.73 513.229C1031.73 513.229 1030.12 516.459 1029.04 517.536C1027.96 518.613 1025.81 519.151 1023.66 519.151C1022.04 519.151 1020.43 519.151 1018.81 517.536C1017.74 516.459 1016.66 514.844 1016.66 513.229L926.752 263.429H860.534L959.592 530.457C965.514 546.069 973.59 557.913 984.895 566.527C996.201 574.602 1009.12 578.371 1023.66 578.371C1038.19 578.371 1051.65 574.064 1062.96 566.527C1073.72 558.451 1082.34 546.069 1087.72 530.457L1187.32 263.429H1121.64Z" fill="url(#paint0_linear_118_6159)"/>
<path d="M1204.75 570.582V263.429H1271.28V570.582H1204.75Z" fill="url(#paint1_linear_118_6159)"/>
<path d="M1238.01 229.33C1263.41 229.33 1284 208.74 1284 183.341C1284 157.942 1263.41 137.352 1238.01 137.352C1212.61 137.352 1192.02 157.942 1192.02 183.341C1192.02 208.74 1212.61 229.33 1238.01 229.33Z" fill="url(#paint2_linear_118_6159)"/>
<path d="M431.907 218.89C374.431 223.47 320.228 221.593 268.613 213.312C163.331 196.914 71.7141 153.261 3.51728 88.1161L49.6069 40.0294C107.037 95.3589 188.584 133.618 278.883 147.767C285.783 148.868 292.735 149.841 299.744 150.687C305.495 151.382 311.283 151.991 317.111 152.514C385.669 158.668 480.455 157.887 563.054 140.298L568.289 205.984C524.961 215.29 471.62 216.069 431.934 219.232L431.907 218.89Z" fill="url(#paint3_linear_118_6159)"/>
<path d="M438.553 570.824H375.748V385.497C375.748 360.101 380.553 337.45 390.162 317.544C399.772 297.639 413.5 281.852 432.032 270.526C450.565 259.201 473.216 253.366 500.328 253.366C501.424 253.366 502.512 253.378 503.593 253.401V253.366H556.269V264.691V313.621H513.576C511.105 313.483 508.634 313.426 506.163 313.426C505.299 313.426 504.442 313.437 503.593 313.46C484.197 313.985 468.594 320.508 457.086 333.331C445.074 346.716 438.896 364.905 438.896 387.557V570.481L438.553 570.824Z" fill="url(#paint4_linear_118_6159)"/>
<path d="M698.502 578.385C668.644 578.385 641.874 570.834 618.193 556.077C594.855 541.319 576.323 521.413 562.595 496.703C548.867 471.992 542.346 444.536 542.346 414.334C542.346 384.132 549.553 357.706 564.311 332.652C579.068 307.941 598.631 288.379 623.684 273.621C648.738 258.864 676.881 251.656 708.112 251.656C739.343 251.656 767.486 258.864 792.539 272.935C817.593 287.006 837.156 306.569 851.913 330.936C866.671 355.303 873.878 383.103 873.878 413.991V570.148H814.161V454.146L835.783 437.672C835.783 463.755 829.948 487.436 818.279 508.715C806.611 529.993 790.48 546.81 769.888 559.165C749.296 571.521 725.615 578.042 698.502 578.042V578.385ZM708.112 519.011C727.674 519.011 745.178 514.206 760.965 504.939C776.752 495.673 788.764 482.975 797.687 467.187C806.611 451.4 811.072 434.24 811.072 415.364C811.072 396.488 806.611 378.984 797.687 363.197C788.764 347.41 776.409 335.054 760.965 325.445C745.178 315.835 727.674 311.03 708.112 311.03C688.549 311.03 671.046 315.835 655.602 325.445C640.158 335.054 627.803 347.41 618.88 363.197C609.956 378.984 605.152 396.144 605.152 415.364C605.152 434.583 609.613 451.057 618.88 467.187C627.803 482.975 640.158 495.673 655.602 504.939C671.046 514.206 688.549 519.011 708.112 519.011Z" fill="url(#paint5_linear_118_6159)"/>
<path d="M308.291 155.067C311.348 185.839 317.269 220.937 322.945 260.751C328.493 299.668 333.584 341.808 334.097 383.018C335.105 464.09 318.41 551.747 240.418 601.964C198.659 628.851 146.328 624.271 108.527 600.115C69.206 574.986 43.618 527.607 56.7372 469.602C67.8726 420.368 94.6778 385.539 131.816 356.301C165.883 329.48 210.374 306.127 260.239 280.018C259.774 276.64 259.303 273.265 258.823 269.893C253.49 232.489 247.074 194.05 243.837 161.47L308.291 155.067ZM267.82 349.21C227.538 370.514 196.122 388.107 171.881 407.192C143.447 429.578 127.024 452.447 119.912 483.89C113.263 513.285 125.322 533.982 143.406 545.538C163.011 558.066 187.845 558.779 205.354 547.506C254.077 516.134 270.265 458.91 269.331 383.823C269.189 372.442 268.653 360.882 267.82 349.21Z" fill="url(#paint6_linear_118_6159)"/>
<path d="M1121.64 263.429L1031.73 513.229C1031.73 513.229 1030.12 516.459 1029.04 517.536C1027.96 518.613 1025.81 519.151 1023.66 519.151C1022.04 519.151 1020.43 519.151 1018.81 517.536C1017.74 516.459 1016.66 514.844 1016.66 513.229L926.752 263.429H860.534L959.592 530.457C965.514 546.069 973.59 557.913 984.895 566.527C996.201 574.602 1009.12 578.371 1023.66 578.371C1038.19 578.371 1051.65 574.064 1062.96 566.527C1073.72 558.451 1082.34 546.069 1087.72 530.457L1187.32 263.429H1121.64Z" fill="url(#paint7_linear_118_6159)"/>
<path d="M1204.75 570.582V263.429H1271.28V570.582H1204.75Z" fill="url(#paint8_linear_118_6159)"/>
<path d="M1238.01 229.33C1263.41 229.33 1284 208.74 1284 183.341C1284 157.942 1263.41 137.352 1238.01 137.352C1212.61 137.352 1192.02 157.942 1192.02 183.341C1192.02 208.74 1212.61 229.33 1238.01 229.33Z" fill="url(#paint9_linear_118_6159)"/>
<path d="M431.907 218.89C374.431 223.47 320.228 221.593 268.613 213.312C163.331 196.914 71.7141 153.261 3.51728 88.1161L49.6069 40.0294C107.037 95.3589 188.584 133.618 278.883 147.767C285.783 148.868 292.735 149.841 299.744 150.687C305.495 151.382 311.283 151.991 317.111 152.514C385.669 158.668 480.455 157.887 563.054 140.298L568.289 205.984C524.961 215.29 471.62 216.069 431.934 219.232L431.907 218.89Z" fill="url(#paint10_linear_118_6159)"/>
<path d="M438.553 570.824H375.748V385.497C375.748 360.101 380.553 337.45 390.162 317.544C399.772 297.639 413.5 281.852 432.032 270.526C450.565 259.201 473.216 253.366 500.328 253.366C501.424 253.366 502.512 253.378 503.593 253.401V253.366H556.269V264.691V313.621H513.576C511.105 313.483 508.634 313.426 506.163 313.426C505.299 313.426 504.442 313.437 503.593 313.46C484.197 313.985 468.594 320.508 457.086 333.331C445.074 346.716 438.896 364.905 438.896 387.557V570.481L438.553 570.824Z" fill="url(#paint11_linear_118_6159)"/>
<path d="M698.502 578.385C668.644 578.385 641.874 570.834 618.193 556.077C594.855 541.319 576.323 521.413 562.595 496.703C548.867 471.992 542.346 444.536 542.346 414.334C542.346 384.132 549.553 357.706 564.311 332.652C579.068 307.941 598.631 288.379 623.684 273.621C648.738 258.864 676.881 251.656 708.112 251.656C739.343 251.656 767.486 258.864 792.539 272.935C817.593 287.006 837.156 306.569 851.913 330.936C866.671 355.303 873.878 383.103 873.878 413.991V570.148H814.161V454.146L835.783 437.672C835.783 463.755 829.948 487.436 818.279 508.715C806.611 529.993 790.48 546.81 769.888 559.165C749.296 571.521 725.615 578.042 698.502 578.042V578.385ZM708.112 519.011C727.674 519.011 745.178 514.206 760.965 504.939C776.752 495.673 788.764 482.975 797.687 467.187C806.611 451.4 811.072 434.24 811.072 415.364C811.072 396.488 806.611 378.984 797.687 363.197C788.764 347.41 776.409 335.054 760.965 325.445C745.178 315.835 727.674 311.03 708.112 311.03C688.549 311.03 671.046 315.835 655.602 325.445C640.158 335.054 627.803 347.41 618.88 363.197C609.956 378.984 605.152 396.144 605.152 415.364C605.152 434.583 609.613 451.057 618.88 467.187C627.803 482.975 640.158 495.673 655.602 504.939C671.046 514.206 688.549 519.011 708.112 519.011Z" fill="url(#paint12_linear_118_6159)"/>
<path d="M308.291 155.067C311.348 185.839 317.269 220.937 322.945 260.751C328.493 299.668 333.584 341.808 334.097 383.018C335.105 464.09 318.41 551.747 240.418 601.964C198.659 628.851 146.328 624.271 108.527 600.115C69.206 574.986 43.618 527.607 56.7372 469.602C67.8726 420.368 94.6778 385.539 131.816 356.301C165.883 329.48 210.374 306.127 260.239 280.018C259.774 276.64 259.303 273.265 258.823 269.893C253.49 232.489 247.074 194.05 243.837 161.47L308.291 155.067ZM267.82 349.21C227.538 370.514 196.122 388.107 171.881 407.192C143.447 429.578 127.024 452.447 119.912 483.89C113.263 513.285 125.322 533.982 143.406 545.538C163.011 558.066 187.845 558.779 205.354 547.506C254.077 516.134 270.265 458.91 269.331 383.823C269.189 372.442 268.653 360.882 267.82 349.21Z" fill="url(#paint13_linear_118_6159)"/>
<defs>
<linearGradient id="paint0_linear_118_6159" x1="1023.93" y1="263.429" x2="1023.93" y2="578.371" gradientUnits="userSpaceOnUse">
<stop stop-color="#3F3F3F"/>
<stop offset="1" stop-color="white" stop-opacity="0"/>
</linearGradient>
<linearGradient id="paint1_linear_118_6159" x1="1238.01" y1="263.429" x2="1238.01" y2="570.582" gradientUnits="userSpaceOnUse">
<stop stop-color="#3F3F3F"/>
<stop offset="1" stop-color="white" stop-opacity="0"/>
</linearGradient>
<linearGradient id="paint2_linear_118_6159" x1="1238.01" y1="137.352" x2="1238.01" y2="229.33" gradientUnits="userSpaceOnUse">
<stop stop-color="#3F3F3F"/>
<stop offset="1" stop-color="white" stop-opacity="0"/>
</linearGradient>
<linearGradient id="paint3_linear_118_6159" x1="275.936" y1="21.9915" x2="292.622" y2="231.357" gradientUnits="userSpaceOnUse">
<stop stop-color="#3F3F3F"/>
<stop offset="1" stop-color="white" stop-opacity="0"/>
</linearGradient>
<linearGradient id="paint4_linear_118_6159" x1="466.009" y1="253.366" x2="466.009" y2="570.824" gradientUnits="userSpaceOnUse">
<stop stop-color="#3F3F3F"/>
<stop offset="1" stop-color="white" stop-opacity="0"/>
</linearGradient>
<linearGradient id="paint5_linear_118_6159" x1="708.112" y1="251.656" x2="708.112" y2="578.385" gradientUnits="userSpaceOnUse">
<stop stop-color="#3F3F3F"/>
<stop offset="1" stop-color="white" stop-opacity="0"/>
</linearGradient>
<linearGradient id="paint6_linear_118_6159" x1="193.704" y1="155.067" x2="193.704" y2="620.256" gradientUnits="userSpaceOnUse">
<stop stop-color="#3F3F3F"/>
<stop offset="1" stop-color="white" stop-opacity="0"/>
</linearGradient>
<linearGradient id="paint7_linear_118_6159" x1="1023.93" y1="263.429" x2="1023.93" y2="578.371" gradientUnits="userSpaceOnUse">
<stop stop-color="white"/>
<stop offset="1" stop-color="white" stop-opacity="0"/>
</linearGradient>
<linearGradient id="paint8_linear_118_6159" x1="1238.01" y1="263.429" x2="1238.01" y2="570.582" gradientUnits="userSpaceOnUse">
<stop stop-color="white"/>
<stop offset="1" stop-color="white" stop-opacity="0"/>
</linearGradient>
<linearGradient id="paint9_linear_118_6159" x1="1238.01" y1="137.352" x2="1238.01" y2="229.33" gradientUnits="userSpaceOnUse">
<stop stop-color="white"/>
<stop offset="1" stop-color="white" stop-opacity="0"/>
</linearGradient>
<linearGradient id="paint10_linear_118_6159" x1="305" y1="127.128" x2="258" y2="516.128" gradientUnits="userSpaceOnUse">
<stop stop-color="white"/>
<stop offset="1" stop-color="white" stop-opacity="0"/>
</linearGradient>
<linearGradient id="paint11_linear_118_6159" x1="466.009" y1="253.366" x2="466.009" y2="570.824" gradientUnits="userSpaceOnUse">
<stop stop-color="white"/>
<stop offset="1" stop-color="white" stop-opacity="0"/>
</linearGradient>
<linearGradient id="paint12_linear_118_6159" x1="708.112" y1="251.656" x2="708.112" y2="578.385" gradientUnits="userSpaceOnUse">
<stop stop-color="white"/>
<stop offset="1" stop-color="white" stop-opacity="0"/>
</linearGradient>
<linearGradient id="paint13_linear_118_6159" x1="193.704" y1="155.067" x2="193.704" y2="620.256" gradientUnits="userSpaceOnUse">
<stop stop-color="white"/>
<stop offset="1" stop-color="white" stop-opacity="0"/>
</linearGradient>
</defs>
</svg>
