<svg width="145" height="70" viewBox="0 0 145 70" fill="none" xmlns="http://www.w3.org/2000/svg">
<path d="M126.586 29.7299L116.439 57.9215C116.439 57.9215 116.257 58.286 116.135 58.4076C116.014 58.5291 115.771 58.5898 115.528 58.5898C115.345 58.5898 115.163 58.5898 114.981 58.4076C114.859 58.286 114.738 58.1038 114.738 57.9215L104.591 29.7299H97.1182L108.298 59.8657C108.966 61.6277 109.877 62.9644 111.153 63.9365C112.429 64.8479 113.887 65.2732 115.528 65.2732C117.168 65.2732 118.687 64.7871 119.963 63.9365C121.178 63.0251 122.15 61.6277 122.758 59.8657L133.998 29.7299H126.586Z" fill="white"/>
<path d="M135.964 64.3942V29.7299H143.472V64.3942H135.964Z" fill="white"/>
<path d="M139.718 25.8815C142.584 25.8815 144.908 23.5578 144.908 20.6913C144.908 17.8249 142.584 15.5012 139.718 15.5012C136.851 15.5012 134.527 17.8249 134.527 20.6913C134.527 23.5578 136.851 25.8815 139.718 25.8815Z" fill="white"/>
<path d="M48.7436 24.703C42.2571 25.22 36.1399 25.0081 30.3149 24.0736C18.433 22.2229 8.09342 17.2964 0.396949 9.94438L5.59847 4.51749C12.0799 10.7618 21.283 15.0795 31.4738 16.6764C32.2525 16.8006 33.0372 16.9105 33.8282 17.006C34.4772 17.0843 35.1304 17.153 35.7882 17.2121C43.5254 17.9066 54.2227 17.8185 63.5444 15.8334L64.1353 23.2466C59.2455 24.2968 53.2255 24.3847 48.7467 24.7416L48.7436 24.703Z" fill="white"/>
<path d="M49.4933 64.421H42.4053V43.5057C42.4053 40.6395 42.9475 38.0832 44.032 35.8367C45.1165 33.5903 46.6658 31.8086 48.7573 30.5304C50.8489 29.2523 53.4052 28.5938 56.465 28.5938C56.5887 28.5938 56.7115 28.5952 56.8334 28.5977V28.5938H62.7783V29.872V35.394H57.9601C57.6812 35.3784 57.4023 35.372 57.1235 35.372C57.026 35.372 56.9293 35.3733 56.8334 35.3759C54.6445 35.4351 52.8835 36.1712 51.5848 37.6184C50.2291 39.129 49.532 41.1818 49.532 43.7381V64.3823L49.4933 64.421Z" fill="white"/>
<path d="M78.8294 65.2746C75.4596 65.2746 72.4385 64.4225 69.766 62.757C67.1321 61.0915 65.0406 58.845 63.4913 56.0563C61.942 53.2675 61.2061 50.1689 61.2061 46.7604C61.2061 43.352 62.0194 40.3695 63.6849 37.5421C65.3504 34.7533 67.5582 32.5455 70.3857 30.88C73.2132 29.2145 76.3892 28.4012 79.9139 28.4012C83.4386 28.4012 86.6146 29.2145 89.4421 30.8026C92.2696 32.3906 94.4774 34.5984 96.1429 37.3484C97.8084 40.0984 98.6217 43.2358 98.6217 46.7217V64.345H91.8823V51.2534L94.3224 49.3942C94.3224 52.3379 93.664 55.0105 92.3471 57.4119C91.0301 59.8133 89.2097 61.7112 86.8858 63.1056C84.5618 64.5 81.8893 65.2359 78.8294 65.2359V65.2746ZM79.9139 58.5739C82.1217 58.5739 84.097 58.0316 85.8787 56.9858C87.6604 55.9401 89.0161 54.507 90.0231 52.7253C91.0302 50.9435 91.5337 49.0069 91.5337 46.8766C91.5337 44.7463 91.0302 42.771 90.0231 40.9893C89.0161 39.2076 87.6217 37.8132 85.8787 36.7287C84.097 35.6442 82.1217 35.1019 79.9139 35.1019C77.7061 35.1019 75.7308 35.6442 73.9878 36.7287C72.2448 37.8132 70.8505 39.2076 69.8434 40.9893C68.8364 42.771 68.2941 44.7076 68.2941 46.8766C68.2941 49.0456 68.7976 50.9048 69.8434 52.7253C70.8505 54.507 72.2448 55.9401 73.9878 56.9858C75.7308 58.0316 77.7061 58.5739 79.9139 58.5739Z" fill="white"/>
<path d="M34.7917 17.5004C35.1367 20.9732 35.8049 24.9343 36.4455 29.4275C37.0716 33.8195 37.6461 38.5753 37.704 43.2261C37.8178 52.3756 35.9336 62.2683 27.1318 67.9356C22.419 70.9701 16.5131 70.4532 12.2469 67.7269C7.80928 64.891 4.9215 59.544 6.40209 52.9977C7.6588 47.4414 10.6839 43.5107 14.8753 40.2109C18.72 37.1841 23.741 34.5485 29.3687 31.6019C29.3162 31.2207 29.263 30.8397 29.2088 30.4592C28.607 26.2379 27.8829 21.8999 27.5176 18.223L34.7917 17.5004ZM30.2242 39.4107C25.6781 41.8149 22.1326 43.8005 19.3969 45.9543C16.1878 48.4808 14.3344 51.0617 13.5318 54.6102C12.7815 57.9276 14.1424 60.2634 16.1833 61.5676C18.3958 62.9814 21.1985 63.062 23.1746 61.7896C28.6733 58.2491 30.5002 51.791 30.3947 43.317C30.3787 42.0326 30.3182 40.7279 30.2242 39.4107Z" fill="white"/>
</svg>
